<mxfile host="app.diagrams.net" modified="2023-12-07T10:43:28.710Z" agent="Mozilla/5.0 (Windows NT 10.0; Win64; x64) AppleWebKit/537.36 (KHTML, like Gecko) Chrome/119.0.0.0 Safari/537.36" etag="Kx4hAzMLAk5NRc9tqGzw" version="22.1.7" type="github">
  <diagram name="Pagina-1" id="wnvUtiLH_dlJ_C7pvEXC">
    <mxGraphModel dx="1562" dy="754" grid="1" gridSize="10" guides="1" tooltips="1" connect="1" arrows="1" fold="1" page="1" pageScale="1" pageWidth="827" pageHeight="1169" math="0" shadow="0">
      <root>
        <mxCell id="0" />
        <mxCell id="1" parent="0" />
        <mxCell id="1kcQqwf_n5cQZJwBGpFs-1" value="Configure Segregation System" style="strokeWidth=1;shadow=0;dashed=0;align=center;html=1;shape=mxgraph.mockup.containers.window;align=left;verticalAlign=top;spacingLeft=8;strokeColor2=#008cff;strokeColor3=#c4c4c4;fontColor=#666666;mainText=;fontSize=17;labelBackgroundColor=none;whiteSpace=wrap;" parent="1" vertex="1">
          <mxGeometry x="160" y="90" width="530" height="420" as="geometry" />
        </mxCell>
        <mxCell id="1kcQqwf_n5cQZJwBGpFs-2" value="Confirm" style="strokeWidth=1;shadow=0;dashed=0;align=center;html=1;shape=mxgraph.mockup.buttons.button;strokeColor=#2D7600;fontColor=#ffffff;mainText=;buttonStyle=round;fontSize=17;fontStyle=1;fillColor=#60a917;whiteSpace=wrap;" parent="1" vertex="1">
          <mxGeometry x="460" y="405" width="150" height="50" as="geometry" />
        </mxCell>
        <mxCell id="1kcQqwf_n5cQZJwBGpFs-3" value="Go back" style="strokeWidth=1;shadow=0;dashed=0;align=center;html=1;shape=mxgraph.mockup.buttons.button;strokeColor=#B20000;mainText=;buttonStyle=round;fontSize=17;fontStyle=1;fillColor=#e51400;whiteSpace=wrap;fontColor=#ffffff;" parent="1" vertex="1">
          <mxGeometry x="240" y="405" width="150" height="50" as="geometry" />
        </mxCell>
        <mxCell id="1kcQqwf_n5cQZJwBGpFs-4" value="Minimum number of rows" style="text;html=1;strokeColor=none;fillColor=none;align=left;verticalAlign=middle;whiteSpace=wrap;rounded=0;" parent="1" vertex="1">
          <mxGeometry x="190" y="150" width="210" height="30" as="geometry" />
        </mxCell>
        <mxCell id="1kcQqwf_n5cQZJwBGpFs-5" value="&lt;i&gt;&lt;font&gt;10000&lt;/font&gt;&lt;/i&gt;" style="rounded=0;whiteSpace=wrap;html=1;fontColor=#000000;" parent="1" vertex="1">
          <mxGeometry x="400" y="157.5" width="190" height="15" as="geometry" />
        </mxCell>
        <mxCell id="1kcQqwf_n5cQZJwBGpFs-7" value="&lt;i&gt;&lt;font&gt;5%&lt;/font&gt;&lt;/i&gt;" style="rounded=0;whiteSpace=wrap;html=1;fontColor=#000000;" parent="1" vertex="1">
          <mxGeometry x="400" y="197.5" width="190" height="15" as="geometry" />
        </mxCell>
        <mxCell id="1kcQqwf_n5cQZJwBGpFs-8" value="Messaging system IP address :" style="text;html=1;strokeColor=none;fillColor=none;align=left;verticalAlign=middle;whiteSpace=wrap;rounded=0;" parent="1" vertex="1">
          <mxGeometry x="190" y="230" width="210" height="30" as="geometry" />
        </mxCell>
        <mxCell id="1kcQqwf_n5cQZJwBGpFs-9" value="&lt;i&gt;192.168.1.16&lt;/i&gt;" style="rounded=0;whiteSpace=wrap;html=1;fontColor=#000000;" parent="1" vertex="1">
          <mxGeometry x="400" y="237.5" width="190" height="15" as="geometry" />
        </mxCell>
        <mxCell id="1kcQqwf_n5cQZJwBGpFs-10" value="Development system IP address :" style="text;html=1;strokeColor=none;fillColor=none;align=left;verticalAlign=middle;whiteSpace=wrap;rounded=0;" parent="1" vertex="1">
          <mxGeometry x="190" y="270" width="210" height="30" as="geometry" />
        </mxCell>
        <mxCell id="1kcQqwf_n5cQZJwBGpFs-11" value="&lt;i style=&quot;border-color: var(--border-color);&quot;&gt;&lt;font style=&quot;border-color: var(--border-color);&quot;&gt;192.168.1.15&lt;/font&gt;&lt;/i&gt;" style="rounded=0;whiteSpace=wrap;html=1;fontColor=#000000;" parent="1" vertex="1">
          <mxGeometry x="400" y="277.5" width="190" height="15" as="geometry" />
        </mxCell>
        <mxCell id="1kcQqwf_n5cQZJwBGpFs-12" value="Preparation system IP address :" style="text;html=1;strokeColor=none;fillColor=none;align=left;verticalAlign=middle;whiteSpace=wrap;rounded=0;" parent="1" vertex="1">
          <mxGeometry x="190" y="310" width="210" height="30" as="geometry" />
        </mxCell>
        <mxCell id="1kcQqwf_n5cQZJwBGpFs-13" value="&lt;i style=&quot;border-color: var(--border-color);&quot;&gt;&lt;font style=&quot;border-color: var(--border-color);&quot;&gt;192.168.1.12&lt;/font&gt;&lt;/i&gt;" style="rounded=0;whiteSpace=wrap;html=1;fontColor=#000000;" parent="1" vertex="1">
          <mxGeometry x="400" y="317.5" width="190" height="15" as="geometry" />
        </mxCell>
        <mxCell id="GoJVD_mKZjlmguoVPjlL-2" value="Percentage of how much classes can&lt;br&gt;deviate from the mean size" style="text;html=1;strokeColor=none;fillColor=none;align=left;verticalAlign=middle;whiteSpace=wrap;rounded=0;" vertex="1" parent="1">
          <mxGeometry x="190" y="192" width="210" height="30" as="geometry" />
        </mxCell>
      </root>
    </mxGraphModel>
  </diagram>
</mxfile>
